<svg width="49" height="77" viewBox="0 0 49 77" fill="none" xmlns="http://www.w3.org/2000/svg">
<path d="M9.00003 64.5589C4.36501 63.2369 10.6326 47.9358 11.5 49.0589L14.5 50.0589C14.5 50.0589 11.9248 65.393 9.00003 64.5589Z" fill="#E1E1E1" stroke="black" stroke-width="1.5"/>
<path d="M7.45618 60.0742L11.4452 61.5854" stroke="black"/>
<path d="M11.8436 52.6286L10.4985 52.1634C10.2376 52.0732 9.95283 52.2116 9.86257 52.4725C9.77231 52.7335 9.9107 53.0182 10.1717 53.1085L11.5167 53.5737C11.7777 53.664 12.0624 53.5256 12.1527 53.2646C12.243 53.0036 12.1046 52.7189 11.8436 52.6286Z" fill="#3B6BB1" stroke="black" stroke-width="0.5"/>
<path d="M12.4496 55.2301L9.77564 54.3053C9.51466 54.215 9.22993 54.3534 9.13967 54.6144C9.04941 54.8753 9.1878 55.1601 9.44878 55.2503L12.1227 56.1751C12.3837 56.2654 12.6684 56.127 12.7587 55.866C12.8489 55.6051 12.7105 55.3203 12.4496 55.2301Z" fill="#3B6BB1" stroke="black" stroke-width="0.5"/>
<path d="M39 64.5589C43.635 63.2369 37.3674 47.9358 36.5 49.0589L33.5 50.0589C33.5 50.0589 36.0753 65.393 39 64.5589Z" fill="#E1E1E1" stroke="black" stroke-width="1.5"/>
<path d="M40.5439 60.0742L36.5548 61.5854" stroke="black"/>
<path d="M36.1564 52.6286L37.5015 52.1634C37.7625 52.0732 38.0472 52.2116 38.1375 52.4725C38.2277 52.7335 38.0893 53.0182 37.8284 53.1085L36.4833 53.5737C36.2223 53.664 35.9376 53.5256 35.8473 53.2646C35.7571 53.0036 35.8955 52.7189 36.1564 52.6286Z" fill="#3B6BB1" stroke="black" stroke-width="0.5"/>
<path d="M35.5505 55.2301L38.2244 54.3053C38.4854 54.215 38.7701 54.3534 38.8604 54.6144C38.9506 54.8753 38.8122 55.1601 38.5513 55.2503L35.8773 56.1751C35.6163 56.2654 35.3316 56.127 35.2414 55.866C35.1511 55.6051 35.2895 55.3203 35.5505 55.2301Z" fill="#3B6BB1" stroke="black" stroke-width="0.5"/>
<path d="M12.5 59C12.5 55.3995 13.4999 50 14.5 50C15.5 50 20.244 51.5 24 51.5C27.756 51.5 32.5 50 33.5 50C34.5 50 35.5 55.3995 35.5 59C35.5 62.6005 35.5 67.5 33.5 68C31.5 68.5 27.7151 68.5 24 68.5C20.2849 68.5 15.5847 68.2712 14.5 68C12.5 67.5 12.5 62.6005 12.5 59.0001V59Z" fill="#E1E1E1" stroke="black" stroke-width="1.5"/>
<path d="M34.9599 59.9918H13.0677V63H35L34.9599 59.9918Z" fill="#3B6BB1" stroke="black"/>
<path d="M18.5 64V59C18.5 58.4477 18.9477 58 19.5 58H28.5C29.0523 58 29.5 58.4477 29.5 59V64C29.5 64.5523 29.0523 65 28.5 65H19.5C18.9477 65 18.5 64.5523 18.5 64Z" fill="#E1E1E1" stroke="black"/>
<rect x="19.75" y="59.25" width="3.5" height="2.5" rx="0.75" fill="#D8B32E" stroke="black" stroke-width="0.5"/>
<circle cx="27" cy="60.5" r="1.25" fill="#C90260" stroke="black" stroke-width="0.5"/>
<circle cx="24.5" cy="63" r="0.75" fill="#D8B32E" stroke="black" stroke-width="0.5"/>
<path d="M17.5 75.5C14.5 75.5 15 68 15 68H33C33 68 33.5 75.5 30.5 75.5C28.5 75.5 27.5 71.5 27.5 71.5C27.5 71.5 25.5 73 24 73C22.5129 73 20.5 71.5 20.5 71.5C20.5 71.5 19.4526 75.5 17.5 75.5Z" fill="#E1E1E1" stroke="black" stroke-width="1.5"/>
<path d="M18.726 70.0042H16.78C16.5038 70.0042 16.28 70.228 16.28 70.5042C16.28 70.7803 16.5038 71.0042 16.78 71.0042H18.726C19.0021 71.0042 19.226 70.7803 19.226 70.5042C19.226 70.228 19.0021 70.0042 18.726 70.0042Z" fill="#3B6BB1" stroke="black" stroke-width="0.5"/>
<path d="M31.2936 70.0042H29.3476C29.0715 70.0042 28.8476 70.228 28.8476 70.5042C28.8476 70.7803 29.0715 71.0042 29.3476 71.0042H31.2936C31.5697 71.0042 31.7936 70.7803 31.7936 70.5042C31.7936 70.228 31.5697 70.0042 31.2936 70.0042Z" fill="#3B6BB1" stroke="black" stroke-width="0.5"/>
<path d="M45.25 34C45.25 39.7264 43.0911 43.9995 39.4144 46.8609C35.7123 49.7421 30.3942 51.25 24 51.25C17.6184 51.25 12.3023 49.6231 8.59725 46.6201C4.91166 43.6329 2.75 39.2292 2.75 33.5C2.75 27.7658 5.20084 21.8106 9.11435 17.288C13.0279 12.7653 18.3355 9.75 24 9.75C29.6537 9.75 34.9604 12.8797 38.8793 17.5305C42.7972 22.1802 45.25 28.2634 45.25 34Z" fill="#F28E42" stroke="black" stroke-width="1.5"/>
<path d="M44.4836 33.5722C44.4836 43.995 36.1048 49.3721 24.0021 49.3721C11.8993 49.3721 3.52051 43.5561 3.52051 33.1333C3.52051 22.7106 12.9475 11.6279 24.0021 11.6279C35.0566 11.6279 44.4836 23.1494 44.4836 33.5722Z" fill="#894C1D"/>
<path d="M16.5 19.5C19.7303 19.3901 24 23 24 23C24 23 28.2697 19.3901 31.5 19.5C37.0814 19.6899 40.1503 25.4174 40 31C39.9083 34.4089 36.5 39 36.5 39C36.5 39 37.025 40.8125 37 42C36.8804 47.6748 25.5 48.5 24 48.5C22.5 48.5 11.1196 47.6748 11 42C10.975 40.8125 11.5 39 11.5 39C11.5 39 8.09176 34.4089 8.00002 31C7.84978 25.4174 10.9186 19.6899 16.5 19.5Z" fill="#FFBF88" stroke="black" stroke-width="1.5"/>
<path d="M17.0544 21.0488C20.0736 20.9484 24.0643 24.2471 24.0643 24.2471C24.0643 24.2471 28.055 20.9484 31.0743 21.0488C36.291 21.2224 39.1593 26.456 39.0188 31.5573C38.9331 34.6723 35.7475 38.8676 35.7475 38.8676C35.7475 38.8676 36.2383 40.5239 36.2149 41.6089C36.1031 46.7945 25.4663 47.5485 24.0643 47.5485C22.6623 47.5485 12.0256 46.7945 11.9138 41.6089C11.8904 40.5239 12.3811 38.8676 12.3811 38.8676C12.3811 38.8676 9.19559 34.6723 9.10984 31.5573C8.96942 26.456 11.8377 21.2224 17.0544 21.0488Z" fill="#DFA370"/>
<path d="M20.0007 29.4737C19.8822 31.7243 18.1863 33.5 16 33.5C13.8137 33.5 12.1178 31.7243 11.9993 29.4737C11.8744 27.1011 13.6937 25 16 25C18.3063 25 20.1256 27.1011 20.0007 29.4737Z" fill="white" stroke="black"/>
<path d="M20.2009 29.9922C20.2009 31.9252 18.3577 33.4922 16.7009 33.4922C15.044 33.4922 13.7009 31.9252 13.7009 29.9922C13.7009 28.0592 14.7538 26.1392 16.7009 25.9922C18.7707 25.836 20.2009 28.0592 20.2009 29.9922Z" fill="black"/>
<path d="M17.2 29C17.2 29.5523 16.8194 30 16.35 30C15.8806 30 15.5 29.5523 15.5 29C15.5 28.4477 15.8806 28 16.35 28C16.8194 28 17.2 28.4477 17.2 29Z" fill="white"/>
<path d="M28.006 29.4737C28.1245 31.7243 29.8204 33.5 32.0067 33.5C34.193 33.5 35.889 31.7243 36.0074 29.4737C36.1323 27.1011 34.313 25 32.0067 25C29.7004 25 27.8812 27.1011 28.006 29.4737Z" fill="white" stroke="black"/>
<path d="M27.8058 29.9922C27.8058 31.9252 29.649 33.4922 31.3058 33.4922C32.9627 33.4922 34.3058 31.9252 34.3058 29.9922C34.3058 28.0592 33.2529 26.1392 31.3058 25.9922C29.2361 25.836 27.8058 28.0592 27.8058 29.9922Z" fill="black"/>
<path d="M30.8067 29C30.8067 29.5523 31.1873 30 31.6567 30C32.1262 30 32.5067 29.5523 32.5067 29C32.5067 28.4477 32.1262 28 31.6567 28C31.1873 28 30.8067 28.4477 30.8067 29Z" fill="white"/>
<path d="M24.5781 39.9103C21.8541 39.785 18.251 37.4016 17.812 37.8786C15.2493 40.6636 21.3614 44.0023 24.5781 43.5533C26.9489 43.2223 29.9667 41.7586 29.693 39.9103C29.4192 38.062 26.5117 39.9993 24.5781 39.9103Z" fill="white" stroke="black"/>
<rect x="23.5" y="37.6647" width="0.501357" height="1.85265" transform="rotate(3.67352 23.5 37.6647)" fill="black"/>
<path d="M22.7185 37.2061C22.4575 37.2207 22.089 37.8048 22.0588 37.3509C22.0286 36.8969 22.3533 36.7405 22.7185 36.6257C23.1549 36.4885 23.4153 36.7804 23.8222 37.0181C23.8222 37.0181 24.5499 36.6342 24.9118 36.7555C25.2896 36.8821 25.6615 37.4762 25.3182 37.574C25.1007 37.636 25.0092 37.3677 24.7836 37.3509C24.452 37.3262 24.002 37.6884 24.002 37.6884H23.487C23.487 37.6884 23.0723 37.1863 22.7185 37.2061Z" fill="black"/>
<path d="M23.3862 41.339C21.0761 41.1891 19.7957 41.0616 17.8095 39.9327L17.6763 39.3547C19.6161 40.5031 20.8962 40.9786 23.3862 41.339Z" fill="black"/>
<path d="M25.1205 41.339C26.8406 41.2498 27.794 41.174 29.2729 40.5023L29.3721 40.1584C27.9277 40.8417 26.9745 41.1246 25.1205 41.339Z" fill="black"/>
<mask id="path-33-inside-1_7_209" fill="white">
<path fill-rule="evenodd" clip-rule="evenodd" d="M24.0375 52.8686C37.2826 52.8686 48.0199 43.0482 48.0199 30.9343C48.0199 18.8203 37.2826 9 24.0375 9C10.7925 9 0.0551758 18.8203 0.0551758 30.9343C0.0551758 43.0482 10.7925 52.8686 24.0375 52.8686ZM24.0644 49.3721C33.7293 49.3721 41.5644 41.7609 41.5644 32.3721C41.5644 22.9832 33.7293 15.3721 24.0644 15.3721C14.3994 15.3721 6.56436 22.9832 6.56436 32.3721C6.56436 41.7609 14.3994 49.3721 24.0644 49.3721Z"/>
</mask>
<path fill-rule="evenodd" clip-rule="evenodd" d="M24.0375 52.8686C37.2826 52.8686 48.0199 43.0482 48.0199 30.9343C48.0199 18.8203 37.2826 9 24.0375 9C10.7925 9 0.0551758 18.8203 0.0551758 30.9343C0.0551758 43.0482 10.7925 52.8686 24.0375 52.8686ZM24.0644 49.3721C33.7293 49.3721 41.5644 41.7609 41.5644 32.3721C41.5644 22.9832 33.7293 15.3721 24.0644 15.3721C14.3994 15.3721 6.56436 22.9832 6.56436 32.3721C6.56436 41.7609 14.3994 49.3721 24.0644 49.3721Z" fill="#E1E1E1"/>
<path d="M47.0199 30.9343C47.0199 42.4138 36.8163 51.8686 24.0375 51.8686V53.8686C37.749 53.8686 49.0199 43.6827 49.0199 30.9343H47.0199ZM24.0375 10C36.8163 10 47.0199 19.4547 47.0199 30.9343H49.0199C49.0199 18.1859 37.749 8 24.0375 8V10ZM1.05518 30.9343C1.05518 19.4547 11.2588 10 24.0375 10V8C10.3261 8 -0.944824 18.1859 -0.944824 30.9343H1.05518ZM24.0375 51.8686C11.2588 51.8686 1.05518 42.4138 1.05518 30.9343H-0.944824C-0.944824 43.6827 10.3261 53.8686 24.0375 53.8686V51.8686ZM40.5644 32.3721C40.5644 41.1815 33.2046 48.3721 24.0644 48.3721V50.3721C34.2541 50.3721 42.5644 42.3403 42.5644 32.3721H40.5644ZM24.0644 16.3721C33.2046 16.3721 40.5644 23.5626 40.5644 32.3721H42.5644C42.5644 22.4038 34.2541 14.3721 24.0644 14.3721V16.3721ZM7.56436 32.3721C7.56436 23.5626 14.9241 16.3721 24.0644 16.3721V14.3721C13.8746 14.3721 5.56436 22.4038 5.56436 32.3721H7.56436ZM24.0644 48.3721C14.9241 48.3721 7.56436 41.1815 7.56436 32.3721H5.56436C5.56436 42.3403 13.8746 50.3721 24.0644 50.3721V48.3721Z" fill="black" mask="url(#path-33-inside-1_7_209)"/>
<ellipse cx="24.0644" cy="32.3721" rx="17.5" ry="17" fill="#3B6BB1" fill-opacity="0.5"/>
<rect x="12.1915" y="1.67918" width="3.0249" height="10.5" rx="1.51245" transform="rotate(-12 12.1915 1.67918)" fill="#E1E1E1" stroke="black" stroke-width="0.5"/>
<rect x="33.3746" y="1.05027" width="3.0249" height="10.5" rx="1.51245" transform="rotate(12 33.3746 1.05027)" fill="#E1E1E1" stroke="black" stroke-width="0.5"/>
</svg>
