<svg width="124" height="111" viewBox="0 0 124 111" fill="none" xmlns="http://www.w3.org/2000/svg">
<path d="M30.5 101H14L0 66L6.5 42L15.5 35L35.5 0L89 6L108 17.5L110.5 26.5L121.5 48.5L118.5 55.5L123.5 71.5L97 106.5L81 103L52.5 110.5L30.5 101Z" fill="#5A6570"/>
<path d="M31.1538 97.2308H15.9231L3 64.9231L9 42.7692L17.3077 36.3077L35.7692 4L85.1538 9.53846L102.692 20.1538L105 28.4615L115.154 48.7692L112.385 55.2308L117 70L92.5385 102.308L77.7692 99.0769L51.4615 106L31.1538 97.2308Z" fill="#7A7675"/>
<path d="M36.9433 90.2624H23.4494L12 61.7557L17.3158 42.2081L24.6761 36.5068L41.0324 8L84.7854 12.8869L100.324 22.2534L102.368 29.5837L111.364 47.5023L108.911 53.2036L113 66.2353L91.3279 94.7421L78.2429 91.8914L54.9352 98L36.9433 90.2624Z" fill="#82807E"/>
<path d="M18.5 48.5L24.5 44L34.5 50.5L48.5 56V64L34.5 58L26 56L22.5 59.5L26 64L16.5 59.5L18.5 48.5Z" fill="#AEADAA"/>
<path d="M44.5 14.5L26 37.5L48.5 50L50 57.5L57.5 69H68.5V50L64.5 41L68.5 35L75.5 29.5L79.5 22L81 16L64.5 14.5H44.5Z" fill="#AEADAA"/>
<path d="M73.5 43L68 39.5L76.5 34H82L86 24.5V34L82 41L73.5 43Z" fill="#AEADAA"/>
<path d="M31.5302 70.5923L30.7427 60.985L43.6253 68.5708L48.1555 75.8482L61.609 74.817L51.4502 81.1409L40.6701 80.5079L31.5302 70.5923Z" fill="#AEADAA"/>
</svg>
