<svg width="170" height="56" viewBox="0 0 170 56" fill="none" xmlns="http://www.w3.org/2000/svg">
<rect x="1" y="1" width="168" height="54" rx="9" fill="#DE1773" fill-opacity="0.35" stroke="#DE1773" stroke-width="2"/>
<path d="M61.1738 33.4082C61.1738 32.8809 61.0918 32.4121 60.9277 32.002C60.7754 31.5918 60.5 31.2168 60.1016 30.877C59.7031 30.5371 59.1406 30.209 58.4141 29.8926C57.6992 29.5645 56.7852 29.2305 55.6719 28.8906C54.4531 28.5156 53.3281 28.0996 52.2969 27.6426C51.2773 27.1738 50.3867 26.6348 49.625 26.0254C48.8633 25.4043 48.2715 24.6953 47.8496 23.8984C47.4277 23.0898 47.2168 22.1582 47.2168 21.1035C47.2168 20.0605 47.4336 19.1113 47.8672 18.2559C48.3125 17.4004 48.9395 16.6621 49.748 16.041C50.5684 15.4082 51.5352 14.9219 52.6484 14.582C53.7617 14.2305 54.9922 14.0547 56.3398 14.0547C58.2383 14.0547 59.873 14.4062 61.2441 15.1094C62.627 15.8125 63.6875 16.7559 64.4258 17.9395C65.1758 19.123 65.5508 20.4297 65.5508 21.8594H61.1738C61.1738 21.0156 60.9922 20.2715 60.6289 19.627C60.2773 18.9707 59.7383 18.4551 59.0117 18.0801C58.2969 17.7051 57.3887 17.5176 56.2871 17.5176C55.2441 17.5176 54.377 17.6758 53.6855 17.9922C52.9941 18.3086 52.4785 18.7363 52.1387 19.2754C51.7988 19.8145 51.6289 20.4238 51.6289 21.1035C51.6289 21.584 51.7402 22.0234 51.9629 22.4219C52.1855 22.8086 52.5254 23.1719 52.9824 23.5117C53.4395 23.8398 54.0137 24.1504 54.7051 24.4434C55.3965 24.7363 56.2109 25.0176 57.1484 25.2871C58.5664 25.709 59.8027 26.1777 60.8574 26.6934C61.9121 27.1973 62.791 27.7715 63.4941 28.416C64.1973 29.0605 64.7246 29.793 65.0762 30.6133C65.4277 31.4219 65.6035 32.3418 65.6035 33.373C65.6035 34.4512 65.3867 35.4238 64.9531 36.291C64.5195 37.1465 63.8984 37.8789 63.0898 38.4883C62.293 39.0859 61.332 39.5488 60.207 39.877C59.0938 40.1934 57.8516 40.3516 56.4805 40.3516C55.25 40.3516 54.0371 40.1875 52.8418 39.8594C51.6582 39.5312 50.5801 39.0332 49.6074 38.3652C48.6348 37.6855 47.8613 36.8418 47.2871 35.834C46.7129 34.8145 46.4258 33.625 46.4258 32.2656H50.8379C50.8379 33.0977 50.9785 33.8066 51.2598 34.3926C51.5527 34.9785 51.957 35.459 52.4727 35.834C52.9883 36.1973 53.5859 36.4668 54.2656 36.6426C54.957 36.8184 55.6953 36.9062 56.4805 36.9062C57.5117 36.9062 58.373 36.7598 59.0645 36.4668C59.7676 36.1738 60.2949 35.7637 60.6465 35.2363C60.998 34.709 61.1738 34.0996 61.1738 33.4082ZM77.8027 20.9805V24.0742H67.0801V20.9805H77.8027ZM70.1738 16.3223H74.4102V34.7441C74.4102 35.3301 74.4922 35.7812 74.6562 36.0977C74.832 36.4023 75.0723 36.6074 75.377 36.7129C75.6816 36.8184 76.0391 36.8711 76.4492 36.8711C76.7422 36.8711 77.0234 36.8535 77.293 36.8184C77.5625 36.7832 77.7793 36.748 77.9434 36.7129L77.9609 39.9473C77.6094 40.0527 77.1992 40.1465 76.7305 40.2285C76.2734 40.3105 75.7461 40.3516 75.1484 40.3516C74.1758 40.3516 73.3145 40.1816 72.5645 39.8418C71.8145 39.4902 71.2285 38.9219 70.8066 38.1367C70.3848 37.3516 70.1738 36.3086 70.1738 35.0078V16.3223ZM91.7949 36.1855V27.1152C91.7949 26.4355 91.6719 25.8496 91.4258 25.3574C91.1797 24.8652 90.8047 24.4844 90.3008 24.2148C89.8086 23.9453 89.1875 23.8105 88.4375 23.8105C87.7461 23.8105 87.1484 23.9277 86.6445 24.1621C86.1406 24.3965 85.748 24.7129 85.4668 25.1113C85.1855 25.5098 85.0449 25.9609 85.0449 26.4648H80.8262C80.8262 25.7148 81.0078 24.9883 81.3711 24.2852C81.7344 23.582 82.2617 22.9551 82.9531 22.4043C83.6445 21.8535 84.4707 21.4199 85.4316 21.1035C86.3926 20.7871 87.4707 20.6289 88.666 20.6289C90.0957 20.6289 91.3613 20.8691 92.4629 21.3496C93.5762 21.8301 94.4492 22.5566 95.082 23.5293C95.7266 24.4902 96.0488 25.6973 96.0488 27.1504V35.6055C96.0488 36.4727 96.1074 37.252 96.2246 37.9434C96.3535 38.623 96.5352 39.2148 96.7695 39.7188V40H92.4277C92.2285 39.543 92.0703 38.9629 91.9531 38.2598C91.8477 37.5449 91.7949 36.8535 91.7949 36.1855ZM92.4102 28.4336L92.4453 31.0527H89.4043C88.6191 31.0527 87.9277 31.1289 87.3301 31.2812C86.7324 31.4219 86.2344 31.6328 85.8359 31.9141C85.4375 32.1953 85.1387 32.5352 84.9395 32.9336C84.7402 33.332 84.6406 33.7832 84.6406 34.2871C84.6406 34.791 84.7578 35.2539 84.9922 35.6758C85.2266 36.0859 85.5664 36.4082 86.0117 36.6426C86.4688 36.877 87.0195 36.9941 87.6641 36.9941C88.5312 36.9941 89.2871 36.8184 89.9316 36.4668C90.5879 36.1035 91.1035 35.6641 91.4785 35.1484C91.8535 34.6211 92.0527 34.123 92.0762 33.6543L93.4473 35.5352C93.3066 36.0156 93.0664 36.5312 92.7266 37.082C92.3867 37.6328 91.9414 38.1602 91.3906 38.6641C90.8516 39.1562 90.2012 39.5605 89.4395 39.877C88.6895 40.1934 87.8223 40.3516 86.8379 40.3516C85.5957 40.3516 84.4883 40.1055 83.5156 39.6133C82.543 39.1094 81.7812 38.4355 81.2305 37.5918C80.6797 36.7363 80.4043 35.7695 80.4043 34.6914C80.4043 33.6836 80.5918 32.793 80.9668 32.0195C81.3535 31.2344 81.916 30.5781 82.6543 30.0508C83.4043 29.5234 84.3184 29.125 85.3965 28.8555C86.4746 28.5742 87.7051 28.4336 89.0879 28.4336H92.4102ZM104.732 24.6016V40H100.496V20.9805H104.539L104.732 24.6016ZM110.551 20.8574L110.516 24.7949C110.258 24.748 109.977 24.7129 109.672 24.6895C109.379 24.666 109.086 24.6543 108.793 24.6543C108.066 24.6543 107.428 24.7598 106.877 24.9707C106.326 25.1699 105.863 25.4629 105.488 25.8496C105.125 26.2246 104.844 26.6816 104.645 27.2207C104.445 27.7598 104.328 28.3633 104.293 29.0312L103.326 29.1016C103.326 27.9062 103.443 26.7988 103.678 25.7793C103.912 24.7598 104.264 23.8633 104.732 23.0898C105.213 22.3164 105.811 21.7129 106.525 21.2793C107.252 20.8457 108.09 20.6289 109.039 20.6289C109.297 20.6289 109.572 20.6523 109.865 20.6992C110.17 20.7461 110.398 20.7988 110.551 20.8574ZM122.803 20.9805V24.0742H112.08V20.9805H122.803ZM115.174 16.3223H119.41V34.7441C119.41 35.3301 119.492 35.7812 119.656 36.0977C119.832 36.4023 120.072 36.6074 120.377 36.7129C120.682 36.8184 121.039 36.8711 121.449 36.8711C121.742 36.8711 122.023 36.8535 122.293 36.8184C122.562 36.7832 122.779 36.748 122.943 36.7129L122.961 39.9473C122.609 40.0527 122.199 40.1465 121.73 40.2285C121.273 40.3105 120.746 40.3516 120.148 40.3516C119.176 40.3516 118.314 40.1816 117.564 39.8418C116.814 39.4902 116.229 38.9219 115.807 38.1367C115.385 37.3516 115.174 36.3086 115.174 35.0078V16.3223Z" fill="white"/>
</svg>
