<svg width="74" height="85" viewBox="0 0 74 85" fill="none" xmlns="http://www.w3.org/2000/svg">
<path d="M59.8945 17.663C59.8702 17.6434 59.8491 17.6264 59.8314 17.6122L59.8307 17.611C59.8013 17.5641 59.7579 17.4937 59.7029 17.4022C59.5928 17.219 59.4362 16.9511 59.2526 16.6157C58.885 15.944 58.4112 15.0057 57.9849 13.9373C57.1186 11.7661 56.5051 9.19499 57.2013 7.22062C57.977 5.02096 58.0324 3.30542 57.2971 2.12678C56.5479 0.92585 55.1079 0.478509 53.3938 0.500799C51.8248 0.521202 50.5912 1.45132 49.8651 2.80074C49.1426 4.14346 48.9035 5.92137 49.2782 7.75958C49.4675 8.68803 49.8814 9.71932 50.3622 10.806C50.536 11.1988 50.7181 11.5978 50.904 12.0054C51.2421 12.7464 51.5931 13.5157 51.9308 14.327C52.9718 16.8282 53.814 19.5703 53.5085 22.438C53.3276 24.1358 52.8727 25.5888 52.392 27.1245C52.2535 27.567 52.1128 28.0164 51.9759 28.4804C51.3723 30.5269 50.8739 32.7785 51.0807 35.7771C48.3431 49.4798 41.0138 57.0419 32.6088 61.0933C24.1624 65.1646 14.5919 65.7064 7.4231 65.275C4.91922 65.1243 3.10482 65.7001 1.95132 66.6948C0.791545 67.6949 0.354618 69.0746 0.541824 70.385C1.17768 74.836 4.31353 78.2605 8.76942 80.5897C13.2252 82.9189 19.0568 84.1876 25.2403 84.3212C37.5868 84.588 51.5458 80.3269 58.9436 70.6173C66.2095 61.0808 70.0352 54.975 71.8417 50.0168C73.6621 45.0204 73.4225 41.2144 72.6604 36.337C71.8812 31.3501 68.6246 26.6453 65.6184 23.2205C64.1086 21.5004 62.6473 20.087 61.5634 19.1034C61.0212 18.6113 60.5728 18.2263 60.2591 17.9635C60.1022 17.8322 59.979 17.7314 59.8945 17.663Z" fill="#F4CC25" stroke="black"/>
<path d="M49.7682 7.6597C50.478 11.1416 54.6438 16.5011 54.0057 22.491C53.5269 26.9843 51.1577 29.9075 51.5842 35.8089C46.0667 63.6138 21.81 66.6417 7.39306 65.7741C2.55572 65.483 0.708581 68.0168 1.0368 70.3143C43.9233 74.7061 57.9365 64.7548 59.4539 17.9508C59.4539 17.9508 55.2063 11.3744 56.7298 7.05434C58.2532 2.73424 56.6979 0.957876 53.4003 1.00076C50.6999 1.03587 49.0583 4.17775 49.7682 7.6597Z" fill="#FFD836"/>
<path d="M53.4003 1.00076C50.6999 1.03587 49.0583 4.17775 49.7682 7.6597L56.7298 7.05434C58.2532 2.73424 56.6979 0.957876 53.4003 1.00076Z" fill="#8C6B29"/>
</svg>
