<svg width="67" height="74" viewBox="0 0 67 74" fill="none" xmlns="http://www.w3.org/2000/svg">
<path d="M12.9195 18.4201L10.7269 22.2057C10.4134 22.7471 10.3929 23.4098 10.6725 23.9695C11.2724 25.1704 12.9078 25.3601 13.7667 24.3285L27.3785 7.97943C28.4799 6.65654 27.8543 4.63797 26.1978 4.16983C25.3645 3.93432 24.4691 4.17045 23.8602 4.78624L22.9048 5.7526C21.0058 7.67335 17.8514 7.59511 15.6664 6.00719C12.104 3.41821 7.9467 1.46981 5.84907 0.562855C4.9657 0.18091 3.98083 0.0785065 3.0614 0.362882C-0.328145 1.41125 -0.554778 3.15992 0.703893 6.24786C1.23648 7.55447 2.39481 8.48417 3.72404 8.95751C5.8169 9.70278 9.10715 11.025 11.8657 12.804C13.7437 14.0151 14.0394 16.4864 12.9195 18.4201Z" fill="#4F5D73"/>
<path fill-rule="evenodd" clip-rule="evenodd" d="M7.6442 33.8325V64C7.6442 69.5228 12.1213 74 17.6442 74H55.7747C61.2274 74 65.675 69.6317 65.7731 64.1798L66.5637 20.2071C66.5877 18.8768 66.3531 17.5496 65.8328 16.3251C63.4215 10.6506 61.1813 7.36 56.6028 4.22389C55.1363 3.21938 53.37 2.77499 51.5925 2.77499H35.1627C32.192 2.77499 29.3751 4.09578 27.4752 6.3795L9.9567 27.437C8.46237 29.2332 7.6442 31.496 7.6442 33.8325ZM44.2613 15.5859L51.4589 23.2303C53.9791 25.907 58.4292 25.0399 59.7601 21.6128L59.8244 21.4472C60.5394 19.6062 60.1037 17.5168 58.7125 16.115L51.3688 8.71537C49.782 7.11657 47.3151 6.79267 45.3695 7.92768C42.623 9.52987 42.0816 13.2709 44.2613 15.5859Z" fill="#C75C5C"/>
</svg>
