<svg width="81" height="140" viewBox="0 0 81 140" fill="none" xmlns="http://www.w3.org/2000/svg">
<path d="M46.0461 110.867L46.2693 110.754L46.2 110.617H46.0461H33.4833H33.3196L33.2541 110.767L33.4833 110.867C33.2541 110.767 33.2541 110.767 33.254 110.767L33.2536 110.768L33.2522 110.771L33.2464 110.784L33.224 110.836C33.2044 110.882 33.1753 110.949 33.1378 111.036C33.0626 111.211 32.9534 111.468 32.8168 111.792C32.5436 112.441 32.161 113.364 31.7231 114.46C30.8475 116.651 29.7494 119.536 28.8625 122.305C27.9786 125.065 27.2938 127.742 27.2636 129.503C27.256 129.946 27.2893 130.343 27.3772 130.675C27.4647 131.006 27.612 131.292 27.8473 131.486C28.339 131.89 29.0521 131.779 29.9095 131.304C30.7548 130.836 31.6968 130.041 32.4185 129.374C32.7816 129.039 33.0929 128.732 33.3135 128.51C33.3177 128.505 33.3219 128.501 33.326 128.497C33.3264 128.499 33.3267 128.5 33.327 128.502C33.3877 128.809 33.4795 129.247 33.6048 129.771C33.8551 130.819 34.2398 132.216 34.7768 133.607C35.3125 134.996 36.0059 136.394 36.8801 137.433C37.7545 138.473 38.8388 139.184 40.1479 139.112C41.4133 139.042 42.4239 138.266 43.2186 137.203C44.0137 136.14 44.6177 134.758 45.07 133.402C45.5232 132.043 45.829 130.694 46.0214 129.687C46.1169 129.187 46.1846 128.771 46.2287 128.477C46.2516 128.497 46.2755 128.518 46.3003 128.54C46.5664 128.774 46.9416 129.093 47.3784 129.437C48.2464 130.12 49.3786 130.917 50.3877 131.318C51.3151 131.687 52.0502 131.682 52.5311 131.219C52.9868 130.781 53.1154 130.013 53.0761 129.124C52.9961 127.319 52.203 124.669 51.1988 121.963C50.1912 119.248 48.9586 116.446 47.9789 114.324C47.4888 113.262 47.0617 112.37 46.7569 111.744C46.6045 111.43 46.4828 111.183 46.399 111.014C46.3571 110.93 46.3248 110.865 46.3029 110.821L46.2779 110.771L46.2715 110.759L46.2699 110.755L46.2695 110.754C46.2694 110.754 46.2693 110.754 46.0461 110.867Z" fill="#FF9D27" stroke="black" stroke-width="0.5"/>
<path d="M36.0618 121.32C36.0618 121.32 34.8593 122.667 33.905 123.221C29.9587 125.51 36.0618 110.867 36.0618 110.867H43.3949C43.3949 110.867 50.188 124.97 45.983 123.221C44.8467 122.748 43.3949 121.32 43.3949 121.32C43.3949 121.32 42.6566 127.816 39.944 127.972C37.1441 128.133 36.0618 121.32 36.0618 121.32Z" fill="#FDF516"/>
<path d="M15.2311 106.537C7.50035 104.332 17.9541 78.8115 19.4008 80.6845L24.4045 82.3524C24.4045 82.3524 20.1092 107.928 15.2311 106.537Z" fill="#E1E1E1" stroke="black" stroke-width="1.5"/>
<path d="M12.6561 99.0569L19.3093 101.577" stroke="black"/>
<path d="M19.9738 86.6385L17.7304 85.8626C17.2951 85.7121 16.8202 85.9429 16.6697 86.3782C16.5191 86.8135 16.75 87.2884 17.1852 87.4389L19.4286 88.2148C19.8639 88.3653 20.3388 88.1345 20.4894 87.6992C20.6399 87.264 20.4091 86.7891 19.9738 86.6385Z" fill="#3B6BB1" stroke="black" stroke-width="0.5"/>
<path d="M20.9845 90.9774L16.5247 89.435C16.0894 89.2844 15.6145 89.5153 15.464 89.9505C15.3134 90.3858 15.5442 90.8607 15.9795 91.0113L20.4393 92.5537C20.8746 92.7043 21.3495 92.4734 21.5001 92.0382C21.6506 91.6029 21.4198 91.128 20.9845 90.9774Z" fill="#3B6BB1" stroke="black" stroke-width="0.5"/>
<path d="M65.2678 106.537C72.9985 104.332 62.5447 78.8115 61.098 80.6845L56.0944 82.3524C56.0944 82.3524 60.3896 107.928 65.2678 106.537Z" fill="#E1E1E1" stroke="black" stroke-width="1.5"/>
<path d="M67.8427 99.0569L61.1895 101.577" stroke="black"/>
<path d="M60.525 86.6385L62.7684 85.8626C63.2037 85.7121 63.6786 85.9429 63.8291 86.3782C63.9796 86.8135 63.7488 87.2884 63.3135 87.4389L61.0702 88.2148C60.6349 88.3653 60.16 88.1345 60.0094 87.6992C59.8589 87.264 60.0897 86.7891 60.525 86.6385Z" fill="#3B6BB1" stroke="black" stroke-width="0.5"/>
<path d="M59.5143 90.9774L63.9741 89.435C64.4094 89.2844 64.8843 89.5153 65.0349 89.9505C65.1854 90.3858 64.9546 90.8607 64.5193 91.0113L60.0595 92.5537C59.6242 92.7043 59.1493 92.4734 58.9987 92.0382C58.8482 91.6029 59.079 91.128 59.5143 90.9774Z" fill="#3B6BB1" stroke="black" stroke-width="0.5"/>
<path d="M21.0686 97.2653C21.0686 91.2601 22.7364 82.2543 24.4044 82.2543C26.0723 82.2543 33.9849 84.7561 40.2494 84.7561C46.5139 84.7561 54.4265 82.2543 56.0944 82.2543C57.7623 82.2543 59.4301 91.2601 59.4301 97.2653C59.4301 103.27 59.4301 111.442 56.0943 112.276C52.7586 113.11 46.4458 113.11 40.2494 113.11C34.053 113.11 26.2135 112.729 24.4044 112.276C21.0687 111.442 21.0686 103.271 21.0686 97.2654V97.2653Z" fill="#E1E1E1" stroke="black" stroke-width="1.5"/>
<path d="M58.5293 98.9195H22.0155V103.937H58.5962L58.5293 98.9195Z" fill="#3B6BB1" stroke="black"/>
<path d="M31.076 106.273V96.5974C31.076 96.0451 31.5237 95.5974 32.076 95.5974H48.4228C48.9751 95.5974 49.4228 96.0451 49.4228 96.5974V106.273C49.4228 106.825 48.9751 107.273 48.4228 107.273H32.076C31.5237 107.273 31.076 106.825 31.076 106.273Z" fill="#E1E1E1" stroke="black"/>
<rect x="32.9939" y="97.5153" width="6.17157" height="4.50367" rx="0.75" fill="#D8B32E" stroke="black" stroke-width="0.5"/>
<circle cx="45.2531" cy="99.7671" r="2.25184" fill="#C90260" stroke="black" stroke-width="0.5"/>
<circle cx="41.0833" cy="103.937" r="1.41789" fill="#D8B32E" stroke="black" stroke-width="0.5"/>
<path d="M29.4081 124.785C24.4044 124.785 25.2384 112.276 25.2384 112.276H55.2604C55.2604 112.276 56.0944 124.785 51.0907 124.785C47.7549 124.785 46.087 118.114 46.087 118.114C46.087 118.114 42.7512 120.616 40.2494 120.616C37.7691 120.616 34.4118 118.114 34.4118 118.114C34.4118 118.114 32.6649 124.785 29.4081 124.785Z" fill="#E1E1E1" stroke="black" stroke-width="1.5"/>
<path d="M31.4529 115.619H28.2072C27.7466 115.619 27.3732 115.992 27.3732 116.453C27.3732 116.914 27.7466 117.287 28.2072 117.287H31.4529C31.9135 117.287 32.2868 116.914 32.2868 116.453C32.2868 115.992 31.9135 115.619 31.4529 115.619Z" fill="#3B6BB1" stroke="black" stroke-width="0.5"/>
<path d="M52.4143 115.619H49.1686C48.708 115.619 48.3346 115.992 48.3346 116.453C48.3346 116.914 48.708 117.287 49.1686 117.287H52.4143C52.8749 117.287 53.2482 116.914 53.2482 116.453C53.2482 115.992 52.8749 115.619 52.4143 115.619Z" fill="#3B6BB1" stroke="black" stroke-width="0.5"/>
<path d="M76.193 55.568C76.193 65.2597 72.5313 72.5383 66.2665 77.4139C59.9763 82.3093 50.9849 84.84 40.2494 84.84C29.5265 84.84 20.5369 82.1068 14.2438 77.0062C7.97017 71.9213 4.30576 64.4285 4.30576 54.734C4.30576 45.0346 8.44735 34.9885 15.0429 27.3664C21.6386 19.7442 30.6195 14.6207 40.2494 14.6207C49.8684 14.6207 58.8485 19.9421 65.4494 27.7758C72.0494 35.6085 76.193 45.8661 76.193 55.568Z" fill="#F28E42" stroke="black" stroke-width="1.5"/>
<path d="M74.4138 54.8545C74.4138 72.2385 60.4389 81.207 40.2528 81.207C20.0668 81.207 6.09183 71.5065 6.09183 54.1225C6.09183 36.7384 21.815 18.2538 40.2528 18.2538C58.6907 18.2538 74.4138 37.4704 74.4138 54.8545Z" fill="#894C1D"/>
<path d="M27.7402 31.3836C33.128 31.2002 40.2494 37.2212 40.2494 37.2212C40.2494 37.2212 47.3708 31.2002 52.7586 31.3836C62.0678 31.7003 67.1863 41.2531 66.9357 50.5643C66.7827 56.25 61.0981 63.9075 61.0981 63.9075C61.0981 63.9075 61.9738 66.9306 61.932 68.9111C61.7325 78.3761 42.7513 79.7524 40.2494 79.7524C37.7476 79.7524 18.7663 78.3761 18.5668 68.9111C18.5251 66.9306 19.4008 63.9075 19.4008 63.9075C19.4008 63.9075 13.7162 56.25 13.5632 50.5643C13.3126 41.2531 18.4311 31.7003 27.7402 31.3836Z" fill="#FFBF88" stroke="black" stroke-width="1.5"/>
<path d="M28.6649 33.9669C33.7006 33.7993 40.3567 39.3012 40.3567 39.3012C40.3567 39.3012 47.0128 33.7993 52.0485 33.9669C60.7494 34.2563 65.5334 42.9855 65.2992 51.4939C65.1562 56.6893 59.843 63.6866 59.843 63.6866C59.843 63.6866 60.6615 66.4491 60.6225 68.2589C60.436 76.9078 42.6951 78.1655 40.3567 78.1655C38.0183 78.1655 20.2774 76.9078 20.0909 68.2589C20.0519 66.4491 20.8704 63.6866 20.8704 63.6866C20.8704 63.6866 15.5572 56.6893 15.4142 51.4939C15.18 42.9855 19.964 34.2563 28.6649 33.9669Z" fill="#DFA370"/>
<path d="M33.9125 48.0362C33.7068 51.9444 30.7525 55.068 26.9063 55.068C23.0601 55.068 20.1057 51.9444 19.9 48.0362C19.683 43.9114 22.8454 40.223 26.9063 40.223C30.9671 40.223 34.1295 43.9114 33.9125 48.0362Z" fill="white" stroke="black"/>
<path d="M33.9129 48.8834C33.9129 52.1075 30.8387 54.7211 28.0753 54.7211C25.3118 54.7211 23.0716 52.1075 23.0716 48.8834C23.0716 45.6594 24.8277 42.457 28.0753 42.2119C31.5274 41.9513 33.9129 45.6594 33.9129 48.8834Z" fill="black"/>
<path d="M28.9077 47.2285C28.9077 48.1497 28.273 48.8964 27.49 48.8964C26.7071 48.8964 26.0723 48.1497 26.0723 47.2285C26.0723 46.3074 26.7071 45.5606 27.49 45.5606C28.273 45.5606 28.9077 46.3074 28.9077 47.2285Z" fill="white"/>
<path d="M46.5975 48.0362C46.8032 51.9444 49.7575 55.068 53.6037 55.068C57.4499 55.068 60.4042 51.9444 60.6099 48.0362C60.827 43.9114 57.6645 40.223 53.6037 40.223C49.5429 40.223 46.3804 43.9114 46.5975 48.0362Z" fill="white" stroke="black"/>
<path d="M46.5971 48.8834C46.5971 52.1075 49.6713 54.7211 52.4347 54.7211C55.1982 54.7211 57.4384 52.1075 57.4384 48.8834C57.4384 45.6594 55.6822 42.457 52.4347 42.2119C48.9826 41.9513 46.5971 45.6594 46.5971 48.8834Z" fill="black"/>
<path d="M51.6022 47.2285C51.6022 48.1497 52.237 48.8964 53.0199 48.8964C53.8029 48.8964 54.4377 48.1497 54.4377 47.2285C54.4377 46.3074 53.8029 45.5606 53.0199 45.5606C52.237 45.5606 51.6022 46.3074 51.6022 47.2285Z" fill="white"/>
<path d="M41.2136 65.4257C36.6702 65.2166 30.6606 61.2415 29.9285 62.0371C25.6542 66.6821 35.8485 72.2507 41.2136 71.5018C45.1679 70.9498 50.2013 68.5085 49.7447 65.4257C49.2881 62.3429 44.4386 65.5741 41.2136 65.4257Z" fill="white" stroke="black"/>
<rect x="39.4154" y="61.6803" width="0.836209" height="3.09002" transform="rotate(3.67352 39.4154 61.6803)" fill="black"/>
<path d="M38.112 60.9154C37.6766 60.9398 37.0621 61.914 37.0117 61.1569C36.9614 60.3997 37.5028 60.1388 38.112 59.9473C38.8398 59.7185 39.2742 60.2054 39.9528 60.6018C39.9528 60.6018 41.1665 59.9615 41.7701 60.1638C42.4003 60.375 43.0206 61.3659 42.4481 61.529C42.0852 61.6324 41.9327 61.1849 41.5563 61.1569C41.0033 61.1157 40.2528 61.7199 40.2528 61.7199H39.3937C39.3937 61.7199 38.702 60.8824 38.112 60.9154Z" fill="black"/>
<path d="M39.2257 67.8087C35.3726 67.5587 33.237 67.346 29.9242 65.4631L29.7021 64.4991C32.9375 66.4144 35.0726 67.2075 39.2257 67.8087Z" fill="black"/>
<path d="M42.1183 67.8087C44.9873 67.6599 46.5774 67.5334 49.044 66.4132L49.2094 65.8396C46.8004 66.9792 45.2106 67.451 42.1183 67.8087Z" fill="black"/>
<mask id="path-35-inside-1_16_16" fill="white">
<path fill-rule="evenodd" clip-rule="evenodd" d="M40.312 87.0387C62.4034 87.0387 80.312 70.6595 80.312 50.4547C80.312 30.2499 62.4034 13.8707 40.312 13.8707C18.2206 13.8707 0.312012 30.2499 0.312012 50.4547C0.312012 70.6595 18.2206 87.0387 40.312 87.0387ZM40.3567 81.207C56.4769 81.207 69.5448 68.5124 69.5448 52.8528C69.5448 37.1932 56.4769 24.4986 40.3567 24.4986C24.2366 24.4986 11.1686 37.1932 11.1686 52.8528C11.1686 68.5124 24.2366 81.207 40.3567 81.207Z"/>
</mask>
<path fill-rule="evenodd" clip-rule="evenodd" d="M40.312 87.0387C62.4034 87.0387 80.312 70.6595 80.312 50.4547C80.312 30.2499 62.4034 13.8707 40.312 13.8707C18.2206 13.8707 0.312012 30.2499 0.312012 50.4547C0.312012 70.6595 18.2206 87.0387 40.312 87.0387ZM40.3567 81.207C56.4769 81.207 69.5448 68.5124 69.5448 52.8528C69.5448 37.1932 56.4769 24.4986 40.3567 24.4986C24.2366 24.4986 11.1686 37.1932 11.1686 52.8528C11.1686 68.5124 24.2366 81.207 40.3567 81.207Z" fill="#E1E1E1"/>
<path d="M79.312 50.4547C79.312 70.0251 61.937 86.0387 40.312 86.0387V88.0387C62.8698 88.0387 81.312 71.2939 81.312 50.4547H79.312ZM40.312 14.8707C61.937 14.8707 79.312 30.8844 79.312 50.4547H81.312C81.312 29.6155 62.8698 12.8707 40.312 12.8707V14.8707ZM1.31201 50.4547C1.31201 30.8844 18.687 14.8707 40.312 14.8707V12.8707C17.7542 12.8707 -0.687988 29.6155 -0.687988 50.4547H1.31201ZM40.312 86.0387C18.687 86.0387 1.31201 70.0251 1.31201 50.4547H-0.687988C-0.687988 71.2939 17.7542 88.0387 40.312 88.0387V86.0387ZM68.5448 52.8528C68.5448 67.933 55.9521 80.207 40.3567 80.207V82.207C57.0016 82.207 70.5448 69.0918 70.5448 52.8528H68.5448ZM40.3567 25.4986C55.9521 25.4986 68.5448 37.7726 68.5448 52.8528H70.5448C70.5448 36.6138 57.0016 23.4986 40.3567 23.4986V25.4986ZM12.1686 52.8528C12.1686 37.7726 24.7613 25.4986 40.3567 25.4986V23.4986C23.7118 23.4986 10.1686 36.6138 10.1686 52.8528H12.1686ZM40.3567 80.207C24.7613 80.207 12.1686 67.933 12.1686 52.8528H10.1686C10.1686 69.0918 23.7118 82.207 40.3567 82.207V80.207Z" fill="black" mask="url(#path-35-inside-1_16_16)"/>
<ellipse cx="40.3567" cy="52.8528" rx="29.1881" ry="28.3542" fill="#3B6BB1" fill-opacity="0.5"/>
<rect x="20.3561" y="1.53176" width="5.37916" height="17.8468" rx="1.75" transform="rotate(-12 20.3561 1.53176)" fill="#E1E1E1" stroke="black" stroke-width="0.5"/>
<rect x="55.7566" y="0.413367" width="5.37916" height="17.8468" rx="1.75" transform="rotate(12 55.7566 0.413367)" fill="#E1E1E1" stroke="black" stroke-width="0.5"/>
</svg>
