<svg width="59" height="76" viewBox="0 0 59 76" fill="none" xmlns="http://www.w3.org/2000/svg">
<path d="M14.5 63.5589C9.86501 62.2369 16.1326 46.9358 17 48.0589L20 49.0589C20 49.0589 17.4248 64.393 14.5 63.5589Z" fill="#E1E1E1" stroke="black" stroke-width="1.5"/>
<path d="M12.9562 59.0742L16.9452 60.5854" stroke="black"/>
<path d="M17.3436 51.6286L15.9985 51.1634C15.7376 51.0732 15.4528 51.2116 15.3626 51.4725C15.2723 51.7335 15.4107 52.0182 15.6717 52.1085L17.0167 52.5737C17.2777 52.664 17.5624 52.5256 17.6527 52.2646C17.743 52.0036 17.6046 51.7189 17.3436 51.6286Z" fill="#3B6BB1" stroke="black" stroke-width="0.5"/>
<path d="M17.9496 54.2301L15.2756 53.3053C15.0147 53.215 14.7299 53.3534 14.6397 53.6144C14.5494 53.8753 14.6878 54.1601 14.9488 54.2503L17.6227 55.1751C17.8837 55.2654 18.1684 55.127 18.2587 54.866C18.3489 54.6051 18.2105 54.3203 17.9496 54.2301Z" fill="#3B6BB1" stroke="black" stroke-width="0.5"/>
<path d="M44.5 63.5589C49.135 62.2369 42.8674 46.9358 42 48.0589L39 49.0589C39 49.0589 41.5752 64.393 44.5 63.5589Z" fill="#E1E1E1" stroke="black" stroke-width="1.5"/>
<path d="M46.0438 59.0742L42.0548 60.5854" stroke="black"/>
<path d="M41.6564 51.6286L43.0015 51.1634C43.2624 51.0732 43.5472 51.2116 43.6374 51.4725C43.7277 51.7335 43.5893 52.0182 43.3283 52.1085L41.9833 52.5737C41.7223 52.664 41.4376 52.5256 41.3473 52.2646C41.257 52.0036 41.3954 51.7189 41.6564 51.6286Z" fill="#3B6BB1" stroke="black" stroke-width="0.5"/>
<path d="M41.0504 54.2301L43.7244 53.3053C43.9853 53.215 44.2701 53.3534 44.3603 53.6144C44.4506 53.8753 44.3122 54.1601 44.0512 54.2503L41.3773 55.1751C41.1163 55.2654 40.8316 55.127 40.7413 54.866C40.6511 54.6051 40.7895 54.3203 41.0504 54.2301Z" fill="#3B6BB1" stroke="black" stroke-width="0.5"/>
<path d="M18 58C18 54.3995 18.9999 49 20 49C21 49 25.744 50.5 29.5 50.5C33.256 50.5 38 49 39 49C40 49 41 54.3995 41 58C41 61.6005 41 66.5 39 67C37 67.5 33.2151 67.5 29.5 67.5C25.7849 67.5 21.0847 67.2712 20 67C18 66.5 18 61.6005 18 58.0001V58Z" fill="#E1E1E1" stroke="black" stroke-width="1.5"/>
<path d="M40.4599 58.9918H18.5677V62H40.5L40.4599 58.9918Z" fill="#3B6BB1" stroke="black"/>
<path d="M24 63V58C24 57.4477 24.4477 57 25 57H34C34.5523 57 35 57.4477 35 58V63C35 63.5523 34.5523 64 34 64H25C24.4477 64 24 63.5523 24 63Z" fill="#E1E1E1" stroke="black"/>
<rect x="25.25" y="58.25" width="3.5" height="2.5" rx="0.75" fill="#D8B32E" stroke="black" stroke-width="0.5"/>
<circle cx="32.5" cy="59.5" r="1.25" fill="#C90260" stroke="black" stroke-width="0.5"/>
<circle cx="30" cy="62" r="0.75" fill="#D8B32E" stroke="black" stroke-width="0.5"/>
<path d="M23 74.5C20 74.5 20.5 67 20.5 67H38.5C38.5 67 39 74.5 36 74.5C34 74.5 33 70.5 33 70.5C33 70.5 31 72 29.5 72C28.0129 72 26 70.5 26 70.5C26 70.5 24.9526 74.5 23 74.5Z" fill="#E1E1E1" stroke="black" stroke-width="1.5"/>
<path d="M24.226 69.0042H22.28C22.0038 69.0042 21.78 69.228 21.78 69.5042C21.78 69.7803 22.0038 70.0042 22.28 70.0042H24.226C24.5021 70.0042 24.726 69.7803 24.726 69.5042C24.726 69.228 24.5021 69.0042 24.226 69.0042Z" fill="#3B6BB1" stroke="black" stroke-width="0.5"/>
<path d="M36.7936 69.0042H34.8476C34.5715 69.0042 34.3476 69.228 34.3476 69.5042C34.3476 69.7803 34.5715 70.0042 34.8476 70.0042H36.7936C37.0697 70.0042 37.2936 69.7803 37.2936 69.5042C37.2936 69.228 37.0697 69.0042 36.7936 69.0042Z" fill="#3B6BB1" stroke="black" stroke-width="0.5"/>
<path d="M1.5 31.6716C1.5 36.1716 4.50002 39.6716 10.5 39.6716C9.16138 34.8728 8.91977 32.0247 9.5 26.6716C9.5 26.6716 6.66999 25.5906 5 26.1716C2.59546 27.0081 1.5 29.1257 1.5 31.6716Z" fill="#FFC38F" stroke="black" stroke-width="1.5"/>
<path d="M2.47107 31.9416C2.47107 35.549 4.65677 38.3547 9.02814 38.3547C8.05287 34.5078 7.87684 32.2246 8.29958 27.9334C8.29958 27.9334 6.23774 27.0668 5.02104 27.5326C3.26918 28.2032 2.47107 29.9007 2.47107 31.9416Z" fill="#DFA370"/>
<path d="M57.9616 31.6688C58.1016 36.1666 55.2119 39.7583 49.2148 39.9449C50.4035 35.1068 50.5564 32.2525 49.8099 26.9201C49.8099 26.9201 52.6049 25.7516 54.2922 26.2804C56.7216 27.0417 57.8824 29.1241 57.9616 31.6688Z" fill="#FFBD85" stroke="black" stroke-width="1.5"/>
<path d="M56.9959 32.0304C57.1081 35.6361 55.0098 38.5086 50.6386 38.6447C51.4942 34.7692 51.5992 32.4815 51.043 28.2054C51.043 28.2054 53.0778 27.275 54.3089 27.7027C56.0815 28.3185 56.9324 29.9904 56.9959 32.0304Z" fill="#DFA370"/>
<path d="M50.75 33C50.75 38.7264 48.5911 42.9995 44.9144 45.8609C41.2123 48.7421 35.8942 50.25 29.5 50.25C23.1184 50.25 17.8023 48.6231 14.0972 45.6201C10.4117 42.6329 8.25 38.2292 8.25 32.5C8.25 26.7658 10.7008 20.8106 14.6143 16.288C18.5279 11.7653 23.8355 8.75 29.5 8.75C35.1537 8.75 40.4604 11.8797 44.3793 16.5305C48.2972 21.1802 50.75 27.2634 50.75 33Z" fill="#F28E42" stroke="black" stroke-width="1.5"/>
<path d="M49.9836 32.5722C49.9836 42.995 41.6048 48.3721 29.5021 48.3721C17.3993 48.3721 9.02051 42.5561 9.02051 32.1333C9.02051 21.7106 18.4475 10.6279 29.5021 10.6279C40.5566 10.6279 49.9836 22.1494 49.9836 32.5722Z" fill="#894C1D"/>
<path d="M22 18.5C25.2303 18.3901 29.5 22 29.5 22C29.5 22 33.7697 18.3901 37 18.5C42.5814 18.6899 45.6503 24.4174 45.5 30C45.4083 33.4089 42 38 42 38C42 38 42.525 39.8125 42.5 41C42.3804 46.6748 31 47.5 29.5 47.5C28 47.5 16.6196 46.6748 16.5 41C16.475 39.8125 17 38 17 38C17 38 13.5918 33.4089 13.5 30C13.3498 24.4174 16.4186 18.6899 22 18.5Z" fill="#FFBF88" stroke="black" stroke-width="1.5"/>
<path d="M22.5544 20.0488C25.5736 19.9484 29.5643 23.2471 29.5643 23.2471C29.5643 23.2471 33.555 19.9484 36.5743 20.0488C41.791 20.2224 44.6593 25.456 44.5188 30.5573C44.4331 33.6723 41.2475 37.8676 41.2475 37.8676C41.2475 37.8676 41.7383 39.5239 41.7149 40.6089C41.6031 45.7945 30.9663 46.5485 29.5643 46.5485C28.1623 46.5485 17.5256 45.7945 17.4138 40.6089C17.3904 39.5239 17.8811 37.8676 17.8811 37.8676C17.8811 37.8676 14.6956 33.6723 14.6098 30.5573C14.4694 25.456 17.3377 20.2224 22.5544 20.0488Z" fill="#DFA370"/>
<path d="M25.5007 28.4737C25.3822 30.7243 23.6863 32.5 21.5 32.5C19.3137 32.5 17.6178 30.7243 17.4993 28.4737C17.3744 26.1011 19.1937 24 21.5 24C23.8063 24 25.6256 26.1011 25.5007 28.4737Z" fill="white" stroke="black"/>
<path d="M25.7009 28.9922C25.7009 30.9252 23.8577 32.4922 22.2009 32.4922C20.544 32.4922 19.2009 30.9252 19.2009 28.9922C19.2009 27.0592 20.2538 25.1392 22.2009 24.9922C24.2707 24.836 25.7009 27.0592 25.7009 28.9922Z" fill="black"/>
<path d="M22.7 28C22.7 28.5523 22.3194 29 21.85 29C21.3806 29 21 28.5523 21 28C21 27.4477 21.3806 27 21.85 27C22.3194 27 22.7 27.4477 22.7 28Z" fill="white"/>
<path d="M33.506 28.4737C33.6245 30.7243 35.3204 32.5 37.5067 32.5C39.693 32.5 41.389 30.7243 41.5074 28.4737C41.6323 26.1011 39.813 24 37.5067 24C35.2004 24 33.3812 26.1011 33.506 28.4737Z" fill="white" stroke="black"/>
<path d="M33.3058 28.9922C33.3058 30.9252 35.149 32.4922 36.8058 32.4922C38.4627 32.4922 39.8058 30.9252 39.8058 28.9922C39.8058 27.0592 38.7529 25.1392 36.8058 24.9922C34.7361 24.836 33.3058 27.0592 33.3058 28.9922Z" fill="black"/>
<path d="M36.3067 28C36.3067 28.5523 36.6873 29 37.1567 29C37.6262 29 38.0067 28.5523 38.0067 28C38.0067 27.4477 37.6262 27 37.1567 27C36.6873 27 36.3067 27.4477 36.3067 28Z" fill="white"/>
<path d="M4.50002 30.7814C3.51372 30.841 2.74854 32.1925 2.74854 32.1925C2.74854 32.1925 2.74854 30.0691 4.51741 29.7745C6.06653 29.5165 7.62112 31.9565 7.62112 31.9565V34.6269C7.62112 34.6269 6.78354 34.8244 6.01174 34.707C5.38565 34.6118 4.51741 34.1204 4.51741 34.1204C4.59765 34.9862 4.53421 35.5513 5.1087 36.1377C5.82421 36.8682 6.36429 36.9376 7.62112 37.1367C7.62112 37.1367 5.87326 37.4366 5.00002 37C4.12679 36.5634 3.59075 36.0117 3.44143 35.0469C3.3183 34.2513 3.20315 33.586 3.90237 33.0899C4.71439 32.5137 6.21487 33.918 6.50002 33.5C6.78518 33.082 5.90339 30.6965 4.50002 30.7814Z" fill="black"/>
<path d="M54.5004 30.7814C55.4867 30.841 56.2519 32.1925 56.2519 32.1925C56.2519 32.1925 56.2519 30.0691 54.483 29.7745C52.9339 29.5165 51.3793 31.9565 51.3793 31.9565V34.6269C51.3793 34.6269 52.2169 34.8244 52.9887 34.707C53.6148 34.6118 54.483 34.1204 54.483 34.1204C54.4028 34.9862 54.4662 35.5513 53.8917 36.1377C53.1762 36.8682 52.6361 36.9376 51.3793 37.1367C51.3793 37.1367 53.1272 37.4366 54.0004 37C54.8736 36.5634 55.4097 36.0117 55.559 35.0469C55.6821 34.2513 55.7973 33.586 55.0981 33.0899C54.286 32.5137 52.7856 33.918 52.5004 33.5C52.2152 33.082 53.097 30.6965 54.5004 30.7814Z" fill="black"/>
<path d="M30.0781 38.9103C27.3541 38.785 23.751 36.4016 23.312 36.8786C20.7493 39.6636 26.8614 43.0023 30.0781 42.5533C32.4489 42.2223 35.4667 40.7586 35.193 38.9103C34.9192 37.062 32.0117 38.9993 30.0781 38.9103Z" fill="white" stroke="black"/>
<rect x="29" y="36.6647" width="0.501357" height="1.85265" transform="rotate(3.67352 29 36.6647)" fill="black"/>
<path d="M28.2185 36.2061C27.9575 36.2207 27.589 36.8048 27.5588 36.3509C27.5286 35.8969 27.8533 35.7405 28.2185 35.6257C28.6549 35.4885 28.9153 35.7804 29.3222 36.0181C29.3222 36.0181 30.0499 35.6342 30.4118 35.7555C30.7896 35.8821 31.1615 36.4762 30.8182 36.574C30.6007 36.636 30.5092 36.3677 30.2836 36.3509C29.952 36.3262 29.502 36.6884 29.502 36.6884H28.987C28.987 36.6884 28.5723 36.1863 28.2185 36.2061Z" fill="black"/>
<path d="M28.8862 40.339C26.5761 40.1891 25.2957 40.0616 23.3095 38.9327L23.1763 38.3547C25.1161 39.5031 26.3962 39.9786 28.8862 40.339Z" fill="black"/>
<path d="M30.6205 40.339C32.3406 40.2498 33.294 40.174 34.7729 39.5023L34.8721 39.1584C33.4277 39.8417 32.4745 40.1246 30.6205 40.339Z" fill="black"/>
<path d="M19.7975 5.87477L25.9204 8.66088C25.9322 8.66623 25.9449 8.66925 25.9578 8.66978L33.7963 8.98924C33.8793 8.99263 33.93 8.89913 33.8819 8.83139L28.2501 0.907524C28.1965 0.832159 28.0781 0.863617 28.069 0.95563L27.7983 3.69736C27.7916 3.76502 27.7209 3.80644 27.6586 3.7791L21.0563 0.879712C20.9574 0.836261 20.8694 0.958871 20.9423 1.03869L24.0256 4.41682C24.0762 4.47226 24.05 4.56161 23.9774 4.58088L19.8133 5.6871C19.7225 5.71122 19.712 5.83586 19.7975 5.87477Z" fill="#894C1D" stroke="black"/>
</svg>
