<svg width="155" height="201" viewBox="0 0 155 201" fill="none" xmlns="http://www.w3.org/2000/svg">
<path d="M36.073 170.616C23.5681 167.049 40.4776 125.768 42.8178 128.798L50.9115 131.496C50.9115 131.496 43.9636 172.866 36.073 170.616Z" fill="#E1E1E1" stroke="black" stroke-width="1.5"/>
<path d="M31.9078 158.516L42.6698 162.593" stroke="black"/>
<path d="M44.0744 138.543L39.786 137.06C39.2641 136.879 38.6946 137.156 38.5141 137.678L38.286 138.337C38.1054 138.859 38.3822 139.429 38.9042 139.609L43.1926 141.093C43.7145 141.273 44.284 140.996 44.4645 140.474L44.6926 139.815C44.8732 139.293 44.5964 138.723 44.0744 138.543Z" fill="#3B6BB1" stroke="black" stroke-width="0.5"/>
<path d="M45.7093 145.561L37.8357 142.838C37.3137 142.658 36.7443 142.934 36.5638 143.456L36.3356 144.116C36.1551 144.638 36.4319 145.207 36.9539 145.388L44.8275 148.111C45.3494 148.292 45.9189 148.015 46.0994 147.493L46.3275 146.833C46.5081 146.311 46.2313 145.742 45.7093 145.561Z" fill="#3B6BB1" stroke="black" stroke-width="0.5"/>
<path d="M140.081 121.497C134.21 109.894 96.8797 134.317 100.298 136.041L104.48 143.477C104.48 143.477 143.785 128.819 140.081 121.497Z" fill="#E1E1E1" stroke="black" stroke-width="1.5"/>
<path d="M127.412 119.699L133.454 129.494" stroke="black"/>
<path d="M110.105 135.429L107.836 131.499C107.56 131.021 107.724 130.41 108.202 130.133L108.806 129.784C109.285 129.508 109.896 129.672 110.172 130.151L112.441 134.08C112.717 134.559 112.553 135.17 112.075 135.446L111.471 135.795C110.992 136.071 110.381 135.908 110.105 135.429Z" fill="#3B6BB1" stroke="black" stroke-width="0.5"/>
<path d="M117.306 135.705L113.14 128.49C112.864 128.011 113.028 127.4 113.506 127.124L114.111 126.775C114.589 126.499 115.201 126.663 115.477 127.141L119.642 134.356C119.918 134.834 119.754 135.446 119.276 135.722L118.672 136.071C118.193 136.347 117.582 136.183 117.306 135.705Z" fill="#3B6BB1" stroke="black" stroke-width="0.5"/>
<path d="M45.5156 155.618C45.5156 145.904 48.2134 131.337 50.9114 131.337C53.6094 131.337 66.4084 135.384 76.5417 135.384C86.6749 135.384 99.474 131.337 102.172 131.337C104.87 131.337 107.568 145.904 107.568 155.618C107.568 165.332 107.568 178.55 102.172 179.899C96.776 181.248 86.5647 181.248 76.5417 181.248C66.5186 181.248 53.8378 180.631 50.9115 179.899C45.5157 178.55 45.5156 165.332 45.5156 155.618V155.618Z" fill="#E1E1E1" stroke="black" stroke-width="1.5"/>
<path d="M106.111 158.294H47.0472V166.41H106.219L106.111 158.294Z" fill="#3B6BB1" stroke="black"/>
<path d="M61.7031 170.806V153.92C61.7031 153.368 62.1508 152.92 62.7031 152.92H90.3802C90.9325 152.92 91.3802 153.368 91.3802 153.92V170.806C91.3802 171.358 90.9325 171.806 90.3802 171.806H62.7031C62.1508 171.806 61.7031 171.358 61.7031 170.806Z" fill="#E1E1E1" stroke="black"/>
<rect x="64.651" y="155.868" width="10.2917" height="7.59375" rx="0.75" fill="#D8B32E" stroke="black" stroke-width="0.5"/>
<circle cx="84.6354" cy="159.665" r="3.79687" fill="#C90260" stroke="black" stroke-width="0.5"/>
<circle cx="77.8906" cy="166.41" r="2.44792" fill="#D8B32E" stroke="black" stroke-width="0.5"/>
<path d="M59.0052 200.134C50.9114 200.134 52.2604 179.899 52.2604 179.899H100.823C100.823 179.899 102.172 200.134 94.0781 200.134C88.6823 200.134 85.9843 189.342 85.9843 189.342C85.9843 189.342 80.5885 193.389 76.5416 193.389C72.5296 193.389 67.0989 189.342 67.0989 189.342C67.0989 189.342 64.2732 200.134 59.0052 200.134Z" fill="#E1E1E1" stroke="black" stroke-width="1.5"/>
<path d="M62.6617 185.306H56.7136C56.1613 185.306 55.7136 185.754 55.7136 186.306V187.004C55.7136 187.557 56.1613 188.004 56.7136 188.004H62.6617C63.2139 188.004 63.6617 187.557 63.6617 187.004V186.306C63.6617 185.754 63.2139 185.306 62.6617 185.306Z" fill="#3B6BB1" stroke="black" stroke-width="0.5"/>
<path d="M96.5681 185.306H90.6201C90.0678 185.306 89.6201 185.754 89.6201 186.306V187.004C89.6201 187.557 90.0678 188.004 90.6201 188.004H96.5681C97.1204 188.004 97.5681 187.557 97.5681 187.004V186.306C97.5681 185.754 97.1204 185.306 96.5681 185.306Z" fill="#3B6BB1" stroke="black" stroke-width="0.5"/>
<path d="M1 84.5863C1 96.7269 9.09379 106.17 25.2812 106.17C21.6698 93.223 21.0179 85.5389 22.5833 71.0967C22.5833 71.0967 14.9482 68.1803 10.4427 69.7478C3.95546 72.0047 1 77.7177 1 84.5863Z" fill="#FFC38F" stroke="black" stroke-width="1.5"/>
<path d="M3.61987 85.3148C3.61987 95.0472 9.51671 102.617 21.3103 102.617C18.6791 92.2383 18.2042 86.0784 19.3447 74.501C19.3447 74.501 13.782 72.163 10.4995 73.4196C5.77311 75.2289 3.61987 79.8086 3.61987 85.3148Z" fill="#DFA370"/>
<path d="M153.329 84.5789C153.706 96.7136 145.91 106.404 129.731 106.907C132.937 93.8544 133.35 86.1537 131.336 71.7673C131.336 71.7673 138.877 68.6147 143.429 70.0413C149.983 72.0953 153.115 77.7136 153.329 84.5789Z" fill="#FFBD85" stroke="black" stroke-width="1.5"/>
<path d="M150.723 85.5544C151.026 95.2824 145.365 103.032 133.572 103.399C135.88 92.9434 136.163 86.7716 134.663 75.2349C134.663 75.2349 140.152 72.7249 143.474 73.8787C148.256 75.5401 150.552 80.0507 150.723 85.5544Z" fill="#DFA370"/>
<path d="M135.146 88.1703C135.146 103.977 129.167 115.891 118.91 123.873C108.629 131.875 93.9723 135.983 76.5416 135.983C59.1236 135.983 44.4689 131.543 34.1845 123.208C23.9195 114.888 17.9375 102.631 17.9375 86.8214C17.9375 71.0065 24.6866 54.6515 35.4184 42.2494C46.1504 29.8471 60.7965 21.4724 76.5416 21.4724C92.276 21.4724 106.921 30.1738 117.658 42.9164C128.395 55.6579 135.146 72.3531 135.146 88.1703Z" fill="#F28E42" stroke="black" stroke-width="1.5"/>
<path d="M131.805 87.0161C131.805 115.136 109.199 129.643 76.5472 129.643C43.895 129.643 21.2897 113.952 21.2897 85.8321C21.2897 57.7123 46.7229 27.8123 76.5472 27.8123C106.371 27.8123 131.805 58.8964 131.805 87.0161Z" fill="#894C1D"/>
<path d="M56.3073 49.0505C65.0224 48.754 76.5417 58.4932 76.5417 58.4932C76.5417 58.4932 88.061 48.754 96.7761 49.0505C111.834 49.5629 120.114 65.0151 119.708 80.0766C119.461 89.2734 110.266 101.66 110.266 101.66C110.266 101.66 111.682 106.55 111.615 109.754C111.292 125.064 80.5886 127.29 76.5417 127.29C72.4948 127.29 41.7915 125.064 41.4688 109.754C41.4013 106.55 42.8178 101.66 42.8178 101.66C42.8178 101.66 33.6226 89.2734 33.3751 80.0766C32.9697 65.0151 41.2492 49.5629 56.3073 49.0505Z" fill="#FFBF88" stroke="black" stroke-width="1.5"/>
<path d="M57.803 53.2292C65.9486 52.9582 76.7152 61.8578 76.7152 61.8578C76.7152 61.8578 87.4818 52.9582 95.6274 53.2292C109.702 53.6974 117.44 67.8174 117.061 81.5802C116.83 89.9841 108.236 101.303 108.236 101.303C108.236 101.303 109.559 105.771 109.496 108.699C109.195 122.689 80.4977 124.723 76.7152 124.723C72.9327 124.723 44.2357 122.689 43.9341 108.699C43.871 105.771 45.1949 101.303 45.1949 101.303C45.1949 101.303 36.6006 89.9841 36.3692 81.5802C35.9904 67.8174 43.7288 53.6974 57.803 53.2292Z" fill="#DFA370"/>
<path d="M66.5996 76.0034C66.2593 82.468 61.3644 87.6703 54.9583 87.6703C48.5522 87.6703 43.6572 82.468 43.317 76.0034C42.9576 69.1765 48.1916 63.0401 54.9583 63.0401C61.725 63.0401 66.9589 69.1765 66.5996 76.0034Z" fill="white" stroke="black"/>
<path d="M66.2919 77.3576C66.2919 82.5727 61.3193 86.8003 56.8492 86.8003C52.3792 86.8003 48.7555 82.5727 48.7555 77.3576C48.7555 72.1426 51.5962 66.9624 56.8492 66.566C62.4333 66.1445 66.2919 72.1426 66.2919 77.3576Z" fill="black"/>
<path d="M58.1958 74.6807C58.1958 76.1707 57.1691 77.3786 55.9026 77.3786C54.6361 77.3786 53.6094 76.1707 53.6094 74.6807C53.6094 73.1907 54.6361 71.9828 55.9026 71.9828C57.1691 71.9828 58.1958 73.1907 58.1958 74.6807Z" fill="white"/>
<path d="M86.5018 76.0034C86.842 82.468 91.737 87.6703 98.1431 87.6703C104.549 87.6703 109.444 82.468 109.784 76.0034C110.144 69.1765 104.91 63.0401 98.1431 63.0401C91.3764 63.0401 86.1425 69.1765 86.5018 76.0034Z" fill="white" stroke="black"/>
<path d="M86.8094 77.3576C86.8094 82.5727 91.7821 86.8003 96.2521 86.8003C100.722 86.8003 104.346 82.5727 104.346 77.3576C104.346 72.1426 101.505 66.9624 96.2521 66.566C90.668 66.1445 86.8094 72.1426 86.8094 77.3576Z" fill="black"/>
<path d="M94.9056 74.6807C94.9056 76.1707 95.9323 77.3786 97.1988 77.3786C98.4654 77.3786 99.4921 76.1707 99.4921 74.6807C99.4921 73.1907 98.4654 71.9828 97.1988 71.9828C95.9323 71.9828 94.9056 73.1907 94.9056 74.6807Z" fill="white"/>
<path d="M9.09384 82.1846C6.43286 82.3455 4.36847 85.9918 4.36847 85.9918C4.36847 85.9918 4.36847 80.263 9.14076 79.4682C13.3201 78.7721 17.5143 85.3551 17.5143 85.3551V92.5596C17.5143 92.5596 15.2546 93.0925 13.1723 92.7758C11.4832 92.5188 9.14076 91.1931 9.14076 91.1931C9.35723 93.5288 9.18607 95.0534 10.736 96.6357C12.6664 98.6063 14.1235 98.7936 17.5143 99.3309C17.5143 99.3309 12.7987 100.14 10.4428 98.962C8.08687 97.784 6.64069 96.2957 6.23784 93.6926C5.90565 91.5461 5.59498 89.7512 7.48141 88.4127C9.67219 86.8584 13.7203 90.6469 14.4897 89.5193C15.259 88.3916 12.88 81.9557 9.09384 82.1846Z" fill="black"/>
<path d="M143.991 82.1846C146.652 82.3455 148.716 85.9918 148.716 85.9918C148.716 85.9918 148.716 80.263 143.944 79.4682C139.764 78.7721 135.57 85.3551 135.57 85.3551V92.5596C135.57 92.5596 137.83 93.0925 139.912 92.7758C141.601 92.5188 143.944 91.1931 143.944 91.1931C143.727 93.5288 143.898 95.0534 142.348 96.6357C140.418 98.6063 138.961 98.7936 135.57 99.3309C135.57 99.3309 140.286 100.14 142.642 98.962C144.998 97.784 146.444 96.2957 146.847 93.6926C147.179 91.5461 147.489 89.7512 145.603 88.4127C143.412 86.8584 139.364 90.6469 138.595 89.5193C137.825 88.3916 140.204 81.9557 143.991 82.1846Z" fill="black"/>
<path d="M78.1014 104.116C70.7521 103.778 61.0312 97.3477 59.847 98.6346C52.9331 106.148 69.423 115.156 78.1014 113.944C84.4976 113.051 92.6394 109.102 91.9009 104.116C91.1623 99.1292 83.318 104.356 78.1014 104.116Z" fill="white" stroke="black"/>
<rect x="75.1927" y="98.0574" width="1.35262" height="4.9983" transform="rotate(3.67352 75.1927 98.0574)" fill="black"/>
<path d="M73.0842 96.8201C72.38 96.8595 71.386 98.4354 71.3045 97.2107C71.223 95.9859 72.0989 95.5639 73.0842 95.2541C74.2616 94.884 74.9642 95.6716 76.0618 96.3128C76.0618 96.3128 78.0251 95.2771 79.0015 95.6043C80.0208 95.9459 81.0241 97.5488 80.0981 97.8126C79.5111 97.9799 79.2644 97.256 78.6557 97.2107C77.7612 97.144 76.5471 98.1214 76.5471 98.1214H75.1575C75.1575 98.1214 74.0387 96.7668 73.0842 96.8201Z" fill="black"/>
<path d="M74.8858 107.97C68.6531 107.566 65.1988 107.222 59.8401 104.176L59.4808 102.617C64.7143 105.715 68.1679 106.998 74.8858 107.97Z" fill="black"/>
<path d="M79.5647 107.97C84.2055 107.73 86.7775 107.525 90.7675 105.713L91.035 104.785C87.1383 106.629 84.5667 107.392 79.5647 107.97Z" fill="black"/>
<path d="M49.9328 14.792L66.9145 22.5192C66.9262 22.5245 66.9389 22.5275 66.9518 22.5281L88.4785 23.4054C88.5616 23.4088 88.6122 23.3153 88.5641 23.2475L72.9066 1.21776C72.853 1.14239 72.7346 1.17385 72.7256 1.26586L71.9277 9.34713C71.921 9.41479 71.8502 9.4562 71.7879 9.42886L53.0269 1.18995C52.928 1.1465 52.84 1.2691 52.9129 1.34892L61.9609 11.262C62.0115 11.3174 61.9852 11.4068 61.9127 11.4261L49.9486 14.6043C49.8578 14.6285 49.8473 14.7531 49.9328 14.792Z" fill="#894C1D" stroke="black"/>
</svg>
