<svg width="180" height="305" viewBox="0 0 180 305" fill="none" xmlns="http://www.w3.org/2000/svg">
<path d="M99.192 286.639C99.5116 286.907 99.8745 287.205 100.268 287.515C101.68 288.626 103.57 289.963 105.289 290.646C106.854 291.269 108.352 291.363 109.392 290.362C110.331 289.459 110.521 287.973 110.456 286.514C110.322 283.488 109.005 279.117 107.38 274.739C105.741 270.323 103.738 265.77 102.149 262.327C101.353 260.604 100.66 259.157 100.165 258.139C99.9176 257.63 99.7198 257.228 99.5835 256.953C99.5154 256.816 99.4627 256.71 99.4269 256.639L99.3861 256.557L99.3755 256.536L99.3728 256.531L99.3721 256.529C99.3719 256.529 99.3718 256.529 98.4788 256.979L99.3718 256.529L99.0946 255.979H98.4788H78.1374H77.4827L77.2208 256.579L78.1374 256.979C77.2208 256.579 77.2207 256.579 77.2206 256.58L77.2199 256.581L77.2175 256.587L77.208 256.609L77.1715 256.693C77.1394 256.767 77.0921 256.877 77.031 257.019C76.9088 257.304 76.7314 257.72 76.5096 258.247C76.0662 259.301 75.4453 260.798 74.7347 262.576C73.3145 266.13 71.5309 270.815 70.0887 275.318C68.6587 279.783 67.5221 284.194 67.4715 287.144C67.4587 287.892 67.5138 288.595 67.6751 289.204C67.8354 289.81 68.1224 290.404 68.634 290.825C69.7408 291.734 71.2217 291.377 72.6394 290.592C74.0742 289.797 75.6432 288.468 76.8173 287.383C77.0695 287.15 77.3066 286.926 77.5235 286.716C77.5911 287.024 77.6683 287.363 77.7553 287.727C78.1643 289.439 78.7944 291.729 79.6765 294.015C80.5538 296.288 81.705 298.623 83.182 300.378C84.66 302.135 86.5797 303.438 88.9613 303.307C91.257 303.181 93.0366 301.772 94.3774 299.978C95.7196 298.183 96.7218 295.878 97.4629 293.656C98.2078 291.422 98.7089 289.211 99.0235 287.564C99.087 287.232 99.143 286.922 99.192 286.639Z" fill="#FF9D27" stroke="black" stroke-width="2"/>
<path d="M82.3125 273.905C82.3125 273.905 80.3655 276.086 78.8202 276.982C72.4305 280.689 82.3125 256.979 82.3125 256.979H94.1861C94.1861 256.979 105.185 279.816 98.3767 276.982C96.5368 276.217 94.1861 273.905 94.1861 273.905C94.1861 273.905 92.9906 284.423 88.5985 284.676C84.065 284.937 82.3125 273.905 82.3125 273.905Z" fill="#FDF516"/>
<path d="M68.7744 230.903L67.8145 231.183L68.7744 230.903L53.1775 177.5C53.1775 177.5 53.1775 177.5 53.1775 177.5C52.9888 176.854 52.2903 176.554 51.7075 176.789L52.0825 177.716L51.7075 176.789C35.6582 183.284 24.8401 191.3 17.1125 203.726C9.41573 216.103 4.84275 232.767 1.0701 256.424C0.89126 257.545 2.2966 258.144 3.0014 257.306L2.23677 256.663L3.00141 257.306C14.6045 243.524 23.9345 235.758 33.6933 232.172C43.4299 228.594 53.7469 229.12 67.4687 232.283C68.2431 232.461 69.0227 231.754 68.7744 230.903Z" fill="#3BAACF" stroke="black" stroke-width="2"/>
<path d="M111.226 230.903L112.186 231.183L111.226 230.903L126.823 177.5C126.823 177.5 126.823 177.5 126.823 177.5C127.011 176.854 127.71 176.554 128.293 176.789L127.917 177.716L128.293 176.789C144.342 183.284 155.16 191.3 162.887 203.726C170.584 216.103 175.157 232.767 178.93 256.424C179.109 257.545 177.703 258.144 176.999 257.306L177.763 256.663L176.999 257.306C165.396 243.524 156.065 235.758 146.307 232.172C136.57 228.594 126.253 229.12 112.531 232.283C111.757 232.461 110.977 231.754 111.226 230.903Z" fill="#3BAACF" stroke="black" stroke-width="2"/>
<path d="M87.0104 2C74.421 19.5525 68.3934 29.8315 59.7331 49.0613H116.386C108.158 28.9483 101.502 18.7638 87.0104 2Z" fill="#F15744" stroke="black" stroke-width="2"/>
<path d="M73.6575 255.979V246.265C73.6575 245.713 74.1053 245.265 74.6575 245.265H101.942C102.494 245.265 102.942 245.713 102.942 246.265V255.979C102.942 256.531 102.494 256.979 101.942 256.979H74.6575C74.1053 256.979 73.6575 256.531 73.6575 255.979Z" fill="#62727A" stroke="black" stroke-width="2"/>
<path d="M68.0517 247.212L67.8194 234.57C67.8091 234.011 68.2598 233.552 68.8192 233.552H107.799C108.351 233.552 108.799 233.999 108.799 234.552V247.194C108.799 247.746 108.351 248.194 107.799 248.194H69.0515C68.5064 248.194 68.0617 247.757 68.0517 247.212Z" fill="#F15744" stroke="black" stroke-width="2"/>
<path d="M59.0154 111.931C59.0154 116.384 61.984 119.847 67.9211 119.847C66.5965 115.099 66.3575 112.28 66.9316 106.983C66.9316 106.983 64.1313 105.914 62.4788 106.489C60.0994 107.316 59.0154 109.412 59.0154 111.931Z" fill="#FFC38F" stroke="black"/>
<path d="M59.9767 112.198C59.9767 115.768 62.1395 118.544 66.465 118.544C65.5 114.738 65.3258 112.478 65.7441 108.232C65.7441 108.232 63.7039 107.375 62.4999 107.835C60.7664 108.499 59.9767 110.179 59.9767 112.198Z" fill="#DFA370"/>
<path d="M114.885 111.928C115.024 116.379 112.165 119.933 106.23 120.118C107.407 115.33 107.558 112.506 106.819 107.229C106.819 107.229 109.585 106.073 111.254 106.596C113.658 107.35 114.807 109.41 114.885 111.928Z" fill="#FFBD85" stroke="black"/>
<path d="M113.93 112.286C114.041 115.854 111.965 118.697 107.639 118.831C108.486 114.996 108.59 112.733 108.039 108.501C108.039 108.501 110.053 107.581 111.271 108.004C113.025 108.613 113.867 110.268 113.93 112.286Z" fill="#DFA370"/>
<path d="M107.992 113.246C107.992 118.98 105.826 123.282 102.124 126.163C98.4047 129.057 93.0836 130.557 86.7222 130.557C80.3693 130.557 75.0495 128.938 71.3284 125.922C67.6203 122.916 65.4528 118.487 65.4528 112.751C65.4528 107.011 67.904 101.064 71.8095 96.5502C75.715 92.0368 81.0291 89.0076 86.7222 89.0076C92.4082 89.0076 97.7217 92.1535 101.631 96.7926C105.539 101.431 107.992 107.504 107.992 113.246Z" fill="#F28E42" stroke="black"/>
<path d="M106.991 112.822C106.991 123.136 98.7002 128.457 86.7243 128.457C74.7484 128.457 66.4574 122.701 66.4574 112.388C66.4574 102.074 75.7856 91.1079 86.7243 91.1079C97.6631 91.1079 106.991 102.509 106.991 112.822Z" fill="#894C1D"/>
<path d="M79.3013 98.8975C82.4977 98.7887 86.7227 102.361 86.7227 102.361C86.7227 102.361 90.9476 98.7887 94.1441 98.8975C99.667 99.0854 102.704 104.753 102.555 110.277C102.464 113.65 99.0917 118.193 99.0917 118.193C99.0917 118.193 99.6112 119.987 99.5865 121.162C99.4681 126.777 88.207 127.594 86.7227 127.594C85.2384 127.594 73.9773 126.777 73.8589 121.162C73.8341 119.987 74.3537 118.193 74.3537 118.193C74.3537 118.193 70.9811 113.65 70.8903 110.277C70.7417 104.753 73.7783 99.0854 79.3013 98.8975Z" fill="#FFBF88" stroke="black"/>
<path d="M79.8496 100.43C82.8372 100.331 86.7861 103.595 86.7861 103.595C86.7861 103.595 90.735 100.331 93.7226 100.43C98.8846 100.602 101.723 105.781 101.584 110.828C101.499 113.911 98.3469 118.062 98.3469 118.062C98.3469 118.062 98.8325 119.701 98.8093 120.775C98.6987 125.906 88.1734 126.652 86.7861 126.652C85.3988 126.652 74.8735 125.906 74.7629 120.775C74.7398 119.701 75.2253 118.062 75.2253 118.062C75.2253 118.062 72.0732 113.911 71.9883 110.828C71.8494 105.781 74.6876 100.602 79.8496 100.43Z" fill="#DFA370"/>
<path d="M82.7592 108.766C82.6421 110.991 80.9659 112.746 78.8057 112.746C76.6454 112.746 74.9692 110.991 74.8521 108.766C74.7287 106.421 76.5269 104.345 78.8057 104.345C81.0844 104.345 82.8826 106.421 82.7592 108.766Z" fill="white" stroke="black"/>
<path d="M82.963 109.28C82.963 111.192 81.1391 112.743 79.4996 112.743C77.8601 112.743 76.5311 111.192 76.5311 109.28C76.5311 107.367 77.5729 105.467 79.4996 105.322C81.5477 105.167 82.963 107.367 82.963 109.28Z" fill="black"/>
<path d="M80.0011 108.302C80.0011 108.851 79.6228 109.296 79.1562 109.296C78.6895 109.296 78.3113 108.851 78.3113 108.302C78.3113 107.753 78.6895 107.308 79.1562 107.308C79.6228 107.308 80.0011 107.753 80.0011 108.302Z" fill="white"/>
<path d="M90.6913 108.766C90.8084 110.991 92.4846 112.746 94.6448 112.746C96.8051 112.746 98.4813 110.991 98.5984 108.766C98.7218 106.421 96.9236 104.345 94.6449 104.345C92.3661 104.345 90.5679 106.421 90.6913 108.766Z" fill="white" stroke="black"/>
<path d="M90.4883 109.28C90.4883 111.192 92.3121 112.743 93.9516 112.743C95.5911 112.743 96.9202 111.192 96.9202 109.28C96.9202 107.367 95.8783 105.467 93.9516 105.322C91.9035 105.167 90.4883 107.367 90.4883 109.28Z" fill="black"/>
<path d="M93.4501 108.302C93.4501 108.851 93.8284 109.296 94.2951 109.296C94.7617 109.296 95.14 108.851 95.14 108.302C95.14 107.753 94.7617 107.308 94.2951 107.308C93.8284 107.308 93.4501 107.753 93.4501 108.302Z" fill="white"/>
<path d="M61.9842 111.05C61.0082 111.109 60.2511 112.447 60.2511 112.447C60.2511 112.447 60.2511 110.345 62.0014 110.054C63.5343 109.799 65.0726 112.213 65.0726 112.213V114.855C65.0726 114.855 64.2438 115.051 63.4801 114.935C62.8606 114.841 62.0014 114.354 62.0014 114.354C62.0808 115.211 62.018 115.77 62.5865 116.35C63.2945 117.073 63.8289 117.142 65.0726 117.339C65.0726 117.339 63.3431 117.636 62.479 117.204C61.6149 116.772 61.0845 116.226 60.9367 115.271C60.8149 114.484 60.7009 113.825 61.3928 113.335C62.1963 112.764 63.6811 114.154 63.9633 113.74C64.2454 113.327 63.3729 110.966 61.9842 111.05Z" fill="black"/>
<path d="M111.461 111.05C112.437 111.109 113.194 112.447 113.194 112.447C113.194 112.447 113.194 110.345 111.444 110.054C109.911 109.799 108.372 112.213 108.372 112.213V114.855C108.372 114.855 109.201 115.051 109.965 114.935C110.585 114.841 111.444 114.354 111.444 114.354C111.364 115.211 111.427 115.77 110.859 116.35C110.151 117.073 109.616 117.142 108.372 117.339C108.372 117.339 110.102 117.636 110.966 117.204C111.83 116.772 112.361 116.226 112.508 115.271C112.63 114.484 112.744 113.825 112.052 113.335C111.249 112.764 109.764 114.154 109.482 113.74C109.2 113.327 110.072 110.966 111.461 111.05Z" fill="black"/>
<path d="M86.8703 119.184C85.0255 119.08 82.5853 117.091 82.288 117.489C80.5524 119.813 84.6918 122.598 86.8703 122.223C88.476 121.947 90.5198 120.726 90.3344 119.184C90.149 117.642 88.1799 119.259 86.8703 119.184Z" fill="white" stroke="black"/>
<rect x="86.2276" y="116.872" width="0.498359" height="1.84157" transform="rotate(3.67352 86.2276 116.872)" fill="black"/>
<path d="M85.454 116.418C85.1957 116.433 84.8312 117.011 84.8013 116.561C84.7714 116.112 85.0926 115.957 85.454 115.844C85.8858 115.708 86.1435 115.997 86.5461 116.232C86.5461 116.232 87.2662 115.852 87.6243 115.972C87.9982 116.098 88.3662 116.685 88.0265 116.782C87.8112 116.844 87.7207 116.578 87.4975 116.561C87.1694 116.537 86.7241 116.895 86.7241 116.895H86.2145C86.2145 116.895 85.8041 116.399 85.454 116.418Z" fill="black"/>
<path d="M77.1242 86.4058L83.1801 89.1614C83.1918 89.1667 83.2045 89.1697 83.2174 89.1703L90.9715 89.4863C91.0545 89.4897 91.1052 89.3962 91.0571 89.3284L85.4871 81.4916C85.4336 81.4163 85.3152 81.4477 85.3061 81.5397L85.0386 84.2485C85.032 84.3162 84.9612 84.3576 84.8989 84.3303L78.3717 81.4638C78.2728 81.4204 78.1848 81.543 78.2576 81.6228L81.3042 84.9606C81.3548 85.016 81.3285 85.1054 81.256 85.1247L77.1399 86.2181C77.0491 86.2422 77.0387 86.3669 77.1242 86.4058Z" fill="#894C1D" stroke="black"/>
<circle cx="88.2996" cy="107.63" r="23.4274" fill="#3BAACF" fill-opacity="0.9"/>
<path fill-rule="evenodd" clip-rule="evenodd" d="M66.2338 233.552H110.982C137.809 156.426 138.691 116.103 116.664 49.0613H59.5831C37.7783 115.268 38.9214 154.627 66.2338 233.552ZM88.2996 127.23C99.6209 127.23 108.799 118.052 108.799 106.731C108.799 95.4094 99.6209 86.2317 88.2996 86.2317C76.9784 86.2317 67.8007 95.4094 67.8007 106.731C67.8007 118.052 76.9784 127.23 88.2996 127.23Z" fill="#DAE3EA"/>
<path d="M110.982 233.552V234.552H111.693L111.927 233.88L110.982 233.552ZM66.2338 233.552L65.2888 233.879L65.5217 234.552H66.2338V233.552ZM116.664 49.0613L117.614 48.7491L117.388 48.0613H116.664V49.0613ZM59.5831 49.0613V48.0613H58.8596L58.6332 48.7484L59.5831 49.0613ZM110.982 232.552H66.2338V234.552H110.982V232.552ZM115.714 49.3734C126.707 82.8321 131.959 109.551 131.144 137.496C130.328 165.45 123.437 194.702 110.038 233.223L111.927 233.88C125.355 195.276 132.318 165.803 133.143 137.554C133.968 109.295 128.648 82.3318 117.614 48.7491L115.714 49.3734ZM59.5831 50.0613H116.664V48.0613H59.5831V50.0613ZM67.1788 233.225C53.5351 193.798 46.458 164.337 45.4889 136.502C44.5202 108.681 49.6514 82.4138 60.5329 49.3741L58.6332 48.7484C47.71 81.9153 42.5103 108.431 43.4901 136.572C44.4694 164.7 51.6201 194.38 65.2888 233.879L67.1788 233.225ZM107.799 106.731C107.799 117.5 99.0686 126.23 88.2996 126.23V128.23C100.173 128.23 109.799 118.604 109.799 106.731H107.799ZM88.2996 87.2317C99.0686 87.2317 107.799 95.9617 107.799 106.731H109.799C109.799 94.8571 100.173 85.2317 88.2996 85.2317V87.2317ZM68.8007 106.731C68.8007 95.9617 77.5307 87.2317 88.2996 87.2317V85.2317C76.4261 85.2317 66.8007 94.8571 66.8007 106.731H68.8007ZM88.2996 126.23C77.5307 126.23 68.8007 117.5 68.8007 106.731H66.8007C66.8007 118.604 76.4261 128.23 88.2996 128.23V126.23Z" fill="black"/>
<circle cx="66.3225" cy="55.638" r="2.92842" fill="white"/>
<circle cx="75.1123" cy="55.638" r="2.92842" fill="white"/>
<circle cx="83.9034" cy="55.9587" r="2.92842" fill="white"/>
<circle cx="92.6946" cy="55.9587" r="2.92842" fill="white"/>
<circle cx="101.486" cy="55.638" r="2.92842" fill="white"/>
<circle cx="110.277" cy="55.638" r="2.92842" fill="white"/>
</svg>
